# xmcd CD database file
#
# Track frame offsets:
#	150
#	13743
#	26525
#	40003
#	54444
#	109064
#	123880
#	137944
#	150591
#	165035
#	180815
#	195364
#	209614
#	224076
#	237645
#	251757
#	265721
#	278465
#	290257
#	304935
#	319442
#	332566
#
# Disc length: 4626 seconds
#
# Revision: 0
# Processed by: cddbd v1.5.2PL0 Copyright (c) Steve Scherf et al.
# Submitted via: CDex 1.70beta2
#
DISCID=35121016
DTITLE=Various Artist - The Story Of Big Bands 1914 - 1955 (8)
DYEAR=2006
DGENRE=Jazz
TTITLE0=Charlie Parker With Neal Hefti Orchestra, Repetition
TTITLE1=Count Basie And His Orchestra, Your Red Wagon
TTITLE2=Dizzy Gillespie And His Orchestra, Algo Bueno (Woody'n You)
TTITLE3=Stan Kenton And His Orchestra, Interlude
TTITLE4=Duke Ellington And His Orchestra, Liberian Suite Danses No1,2,3
TTITLE5=Woody herman And His Orchestra, Four Brothers
TTITLE6=Ray McKinley And His Orchestra, Idiot's Delight
TTITLE7=Dizzy Gillespie And His Orchestra, Good Bait
TTITLE8=Buddy Rich And His Orchestra, The Carioca
TTITLE9=Buddy Rich And His Orchestra, Over The Rainbow
TTITLE10=Woody Herman And His Orchestra, Early Autumn
TTITLE11=The Metronome All-Stars, Overtime
TTITLE12=Gene Krupa And His Orchestra, Lemon Drop
TTITLE13=Lionel Hampton And His Orchestra, Hamp's Boogie No2
TTITLE14=Benny Goodman And His Orchestra, Undercurrent Blues
TTITLE15=Chubby Jackson And His Orchestra, father Knickerbopper
TTITLE16=Charlie Barnet And His Orchestra, Overtime
TTITLE17=Elliott Lawrence And His Orchestra, Elevation
TTITLE18=Miles Davis And His Orchestra, Rouge
TTITLE19=Miles Davis And His Orchestra, Venus De Milo
TTITLE20=Buddy DeFranco And His Orchestra, A Bird In Igor's Yard
TTITLE21=Woody Herman And His Orchestra, More Moon
EXTD=YEAR: 2006
EXTT0=
EXTT1=
EXTT2=
EXTT3=
EXTT4=
EXTT5=
EXTT6=
EXTT7=
EXTT8=
EXTT9=
EXTT10=
EXTT11=
EXTT12=
EXTT13=
EXTT14=
EXTT15=
EXTT16=
EXTT17=
EXTT18=
EXTT19=
EXTT20=
EXTT21=
PLAYORDER=
